<svg width="20" height="20" version="1.1" xmlns="http://www.w3.org/2000/svg">
  <path d="m8.0469 1.75-6 3 6 3v-2.25h6.9531c.71734 0 1.5.83133 1.5 1.5v4.6562l1.5 1.1562v-5.8125c0-1.6447-1.3553-3-3-3h-6.9531v-2.25z" color="#000000" fill="#0f0f0f"/>
  <path d="m11.953 18.25 6-3-6-3v2.25h-6.9531c-.71734 0-1.5-.83133-1.5-1.5v-4.6563l-1.5-1.1562v5.8125c0 1.6447 1.3553 3 3 3h6.9531z" color="#000000" fill="#0f0f0f"/>
  <rect x="7.2" y="6.3" width="5.6" height="7.4" rx="0.8" ry="0.8" fill="#ffffff" fill-opacity="0.9"/>
  <path d="m11.4 7.5h-2.8v1.6h2v1h-2c-.55228 0-1 .44772-1 1v1.4c0 .55228.44772 1 1 1h2.8v-1.6h-2v-1h2c.55228 0 1-.44772 1-1v-1.4c0-.55228-.44772-1-1-1z" fill="#0f0f0f"/>
</svg>
