<svg width="20" height="18" version="1.1" xmlns="http://www.w3.org/2000/svg">
  <path d="m2.0475 4.5 4.953 2.5v-2h7.9531c1.0469 0 2.047 1 2.0469 2l-5e-4 4 1 1 5e-4-5.0001c.000164-1.6447-1.3553-3-3-3l-8 1e-4v-2z" color="#000000" fill="#111111"/>
  <path d="m17.953 13.5-4.953-2.5v2h-7.9531c-1.0469 0-2.0469-1-2.0469-2v-4l-1-1v5.0001c0 1.6447 1.368 2.796 3 3l8-1e-4v2z" color="#000000" fill="#111111"/>
  <rect x="7" y="5.2" width="6" height="7.3" rx="0.8" ry="0.8" fill="#f3f6f9" fill-opacity="0.92"/>
  <path d="m11.4 6.5h-3v1.6h2.1v1h-2.1c-.5523 0-1 .4477-1 1v1.4c0 .5523.4477 1 1 1h3v-1.6h-2.1v-1h2.1c.5523 0 1-.4477 1-1v-1.4c0-.5523-.4477-1-1-1z" fill="#111111"/>
</svg>
